<svg xmlns="http://www.w3.org/2000/svg" xmlns:xlink="http://www.w3.org/1999/xlink" width="500" zoomAndPan="magnify" viewBox="0 0 375 374.999991" height="500" preserveAspectRatio="xMidYMid meet" version="1.0"><defs><g/><clipPath id="f0712d8c32"><path d="M 49.410156 114.34375 L 325.410156 114.34375 L 325.410156 260.59375 L 49.410156 260.59375 Z M 49.410156 114.34375 " clip-rule="nonzero"/></clipPath><clipPath id="538cfb80ba"><path d="M 277 167.589844 L 300 167.589844 L 300 209.589844 L 277 209.589844 Z M 277 167.589844 " clip-rule="nonzero"/></clipPath></defs><g clip-path="url(#f0712d8c32)"><path fill="#000000" d="M 98.539062 233.390625 L 109.226562 200.730469 L 81.382812 180.578125 L 115.75 180.660156 L 126.289062 147.949219 L 136.839844 180.660156 L 325.402344 170.199219 L 144.34375 170.328125 L 126.289062 114.34375 L 108.246094 170.328125 L 49.429688 170.199219 L 97.089844 204.675781 L 78.785156 260.578125 L 126.289062 225.902344 L 275.226562 209.53125 L 126.289062 213.128906 Z M 98.539062 233.390625 " fill-opacity="1" fill-rule="nonzero"/></g><g clip-path="url(#538cfb80ba)"><path fill="#000000" d="M 278.988281 199.800781 C 278.988281 199.800781 278.628906 195.300781 280.644531 193.148438 C 282.660156 191 288.046875 185.976562 288.503906 181.867188 C 288.503906 181.867188 289.800781 184.410156 289.152344 186.238281 C 289.152344 186.238281 290.84375 184.085938 290.648438 181.019531 C 290.648438 181.019531 293.050781 173.976562 290.191406 167.585938 C 290.191406 167.585938 302.53125 177.890625 295.257812 190.28125 C 295.257812 190.28125 298.050781 188.652344 299.285156 186.105469 C 299.285156 186.105469 297.207031 194.453125 289.152344 198.691406 C 289.152344 198.691406 291.785156 198.203125 293.539062 197.03125 C 293.539062 197.03125 289.738281 201.300781 283.242188 202.539062 C 276.746094 203.78125 278.371094 209.585938 278.371094 209.585938 C 278.371094 209.585938 274.800781 205.214844 279.734375 201.238281 C 284.671875 197.257812 292.464844 192.824219 293.765625 186.433594 C 293.765625 186.433594 291.945312 191.128906 286.816406 194.652344 C 281.683594 198.171875 278.988281 199.800781 278.988281 199.800781 " fill-opacity="1" fill-rule="evenodd"/></g><g fill="#000000" fill-opacity="1"><g transform="translate(111.74389, 201.9482)"><g><path d="M 11.34375 -3.859375 C 11.988281 -3.859375 12.617188 -3.957031 13.234375 -4.15625 C 13.847656 -4.351562 14.296875 -4.539062 14.578125 -4.71875 L 15.015625 -5.015625 L 16.828125 -1.390625 C 16.773438 -1.335938 16.691406 -1.273438 16.578125 -1.203125 C 16.472656 -1.128906 16.226562 -0.988281 15.84375 -0.78125 C 15.457031 -0.582031 15.046875 -0.40625 14.609375 -0.25 C 14.171875 -0.09375 13.59375 0.0390625 12.875 0.15625 C 12.164062 0.28125 11.429688 0.34375 10.671875 0.34375 C 8.929688 0.34375 7.28125 -0.0820312 5.71875 -0.9375 C 4.164062 -1.789062 2.910156 -2.96875 1.953125 -4.46875 C 0.992188 -5.96875 0.515625 -7.59375 0.515625 -9.34375 C 0.515625 -10.65625 0.796875 -11.914062 1.359375 -13.125 C 1.921875 -14.34375 2.664062 -15.378906 3.59375 -16.234375 C 4.53125 -17.097656 5.617188 -17.785156 6.859375 -18.296875 C 8.097656 -18.816406 9.367188 -19.078125 10.671875 -19.078125 C 11.890625 -19.078125 13.007812 -18.929688 14.03125 -18.640625 C 15.050781 -18.359375 15.773438 -18.070312 16.203125 -17.78125 L 16.828125 -17.359375 L 15.015625 -13.71875 C 14.910156 -13.8125 14.75 -13.921875 14.53125 -14.046875 C 14.320312 -14.179688 13.898438 -14.351562 13.265625 -14.5625 C 12.628906 -14.769531 11.988281 -14.875 11.34375 -14.875 C 10.3125 -14.875 9.382812 -14.707031 8.5625 -14.375 C 7.75 -14.039062 7.101562 -13.601562 6.625 -13.0625 C 6.144531 -12.519531 5.78125 -11.929688 5.53125 -11.296875 C 5.28125 -10.671875 5.15625 -10.03125 5.15625 -9.375 C 5.15625 -7.957031 5.6875 -6.679688 6.75 -5.546875 C 7.820312 -4.421875 9.351562 -3.859375 11.34375 -3.859375 Z M 11.34375 -3.859375 "/></g></g></g><g fill="#000000" fill-opacity="1"><g transform="translate(126.717174, 201.9482)"><g><path d="M 1.359375 0 L 1.359375 -11.65625 L 5.390625 -11.65625 L 5.390625 -9.96875 L 5.4375 -9.96875 C 5.457031 -10.03125 5.5 -10.109375 5.5625 -10.203125 C 5.632812 -10.296875 5.785156 -10.453125 6.015625 -10.671875 C 6.242188 -10.898438 6.488281 -11.101562 6.75 -11.28125 C 7.007812 -11.46875 7.34375 -11.632812 7.75 -11.78125 C 8.15625 -11.925781 8.570312 -12 9 -12 C 9.4375 -12 9.863281 -11.9375 10.28125 -11.8125 C 10.707031 -11.6875 11.019531 -11.566406 11.21875 -11.453125 L 11.546875 -11.265625 L 9.859375 -7.859375 C 9.359375 -8.285156 8.660156 -8.5 7.765625 -8.5 C 7.285156 -8.5 6.867188 -8.390625 6.515625 -8.171875 C 6.171875 -7.960938 5.925781 -7.707031 5.78125 -7.40625 C 5.632812 -7.101562 5.53125 -6.84375 5.46875 -6.625 C 5.414062 -6.414062 5.390625 -6.253906 5.390625 -6.140625 L 5.390625 0 Z M 1.359375 0 "/></g></g></g><g fill="#000000" fill-opacity="1"><g transform="translate(135.89655, 201.9482)"><g><path d="M 13.15625 -5.265625 L 4.703125 -5.265625 C 4.703125 -4.453125 4.96875 -3.847656 5.5 -3.453125 C 6.03125 -3.054688 6.601562 -2.859375 7.21875 -2.859375 C 7.875 -2.859375 8.390625 -2.945312 8.765625 -3.125 C 9.148438 -3.300781 9.582031 -3.644531 10.0625 -4.15625 L 12.96875 -2.703125 C 11.757812 -0.671875 9.742188 0.34375 6.921875 0.34375 C 5.171875 0.34375 3.664062 -0.253906 2.40625 -1.453125 C 1.144531 -2.660156 0.515625 -4.113281 0.515625 -5.8125 C 0.515625 -7.507812 1.144531 -8.960938 2.40625 -10.171875 C 3.664062 -11.390625 5.171875 -12 6.921875 -12 C 8.773438 -12 10.28125 -11.460938 11.4375 -10.390625 C 12.59375 -9.328125 13.171875 -7.800781 13.171875 -5.8125 C 13.171875 -5.539062 13.164062 -5.359375 13.15625 -5.265625 Z M 4.8125 -7.5 L 9.25 -7.5 C 9.15625 -8.101562 8.914062 -8.566406 8.53125 -8.890625 C 8.144531 -9.210938 7.648438 -9.375 7.046875 -9.375 C 6.378906 -9.375 5.847656 -9.203125 5.453125 -8.859375 C 5.054688 -8.515625 4.84375 -8.0625 4.8125 -7.5 Z M 4.8125 -7.5 "/></g></g></g><g fill="#000000" fill-opacity="1"><g transform="translate(147.461653, 201.9482)"><g><path d="M 2.15625 -1.4375 C 1.0625 -2.625 0.515625 -4.082031 0.515625 -5.8125 C 0.515625 -7.539062 1.0625 -9.003906 2.15625 -10.203125 C 3.25 -11.398438 4.632812 -12 6.3125 -12 C 7.863281 -12 9.132812 -11.515625 10.125 -10.546875 L 10.125 -11.65625 L 14.15625 -11.65625 L 14.15625 0 L 10.171875 0 L 10.171875 -1.3125 L 10.125 -1.3125 C 9.132812 -0.207031 7.863281 0.34375 6.3125 0.34375 C 4.632812 0.34375 3.25 -0.25 2.15625 -1.4375 Z M 5.578125 -7.78125 C 5.054688 -7.269531 4.796875 -6.613281 4.796875 -5.8125 C 4.796875 -5.007812 5.046875 -4.351562 5.546875 -3.84375 C 6.046875 -3.34375 6.703125 -3.09375 7.515625 -3.09375 C 8.304688 -3.09375 8.953125 -3.347656 9.453125 -3.859375 C 9.960938 -4.378906 10.21875 -5.03125 10.21875 -5.8125 C 10.21875 -6.613281 9.957031 -7.269531 9.4375 -7.78125 C 8.914062 -8.300781 8.273438 -8.5625 7.515625 -8.5625 C 6.742188 -8.5625 6.097656 -8.300781 5.578125 -7.78125 Z M 5.578125 -7.78125 "/></g></g></g><g fill="#000000" fill-opacity="1"><g transform="translate(160.844454, 201.9482)"><g><path d="M 2.046875 -11.65625 L 2.046875 -16 L 6.0625 -16 L 6.0625 -11.65625 L 8.515625 -11.65625 L 8.515625 -8.59375 L 6.0625 -8.59375 L 6.0625 -4.890625 C 6.0625 -3.804688 6.363281 -3.265625 6.96875 -3.265625 C 7.125 -3.265625 7.285156 -3.296875 7.453125 -3.359375 C 7.617188 -3.421875 7.75 -3.484375 7.84375 -3.546875 L 7.96875 -3.640625 L 8.96875 -0.390625 C 8.101562 0.0976562 7.117188 0.34375 6.015625 0.34375 C 5.265625 0.34375 4.613281 0.210938 4.0625 -0.046875 C 3.519531 -0.316406 3.109375 -0.675781 2.828125 -1.125 C 2.546875 -1.570312 2.34375 -2.039062 2.21875 -2.53125 C 2.101562 -3.019531 2.046875 -3.546875 2.046875 -4.109375 L 2.046875 -8.59375 L 0.359375 -8.59375 L 0.359375 -11.65625 Z M 2.046875 -11.65625 "/></g></g></g><g fill="#000000" fill-opacity="1"><g transform="translate(167.683543, 201.9482)"><g><path d="M 1.75 -18.15625 C 2.21875 -18.625 2.773438 -18.859375 3.421875 -18.859375 C 4.078125 -18.859375 4.640625 -18.625 5.109375 -18.15625 C 5.578125 -17.6875 5.8125 -17.125 5.8125 -16.46875 C 5.8125 -15.820312 5.578125 -15.257812 5.109375 -14.78125 C 4.640625 -14.3125 4.078125 -14.078125 3.421875 -14.078125 C 2.773438 -14.078125 2.21875 -14.3125 1.75 -14.78125 C 1.28125 -15.257812 1.046875 -15.820312 1.046875 -16.46875 C 1.046875 -17.125 1.28125 -17.6875 1.75 -18.15625 Z M 1.359375 -11.65625 L 1.359375 0 L 5.390625 0 L 5.390625 -11.65625 Z M 1.359375 -11.65625 "/></g></g></g><g fill="#000000" fill-opacity="1"><g transform="translate(172.409561, 201.9482)"><g><path d="M 4.3125 -11.65625 L 7.15625 -5.3125 L 10 -11.65625 L 14.765625 -11.65625 L 8.515625 0 L 5.796875 0 L -0.453125 -11.65625 Z M 4.3125 -11.65625 "/></g></g></g><g fill="#000000" fill-opacity="1"><g transform="translate(184.588141, 201.9482)"><g><path d="M 13.15625 -5.265625 L 4.703125 -5.265625 C 4.703125 -4.453125 4.96875 -3.847656 5.5 -3.453125 C 6.03125 -3.054688 6.601562 -2.859375 7.21875 -2.859375 C 7.875 -2.859375 8.390625 -2.945312 8.765625 -3.125 C 9.148438 -3.300781 9.582031 -3.644531 10.0625 -4.15625 L 12.96875 -2.703125 C 11.757812 -0.671875 9.742188 0.34375 6.921875 0.34375 C 5.171875 0.34375 3.664062 -0.253906 2.40625 -1.453125 C 1.144531 -2.660156 0.515625 -4.113281 0.515625 -5.8125 C 0.515625 -7.507812 1.144531 -8.960938 2.40625 -10.171875 C 3.664062 -11.390625 5.171875 -12 6.921875 -12 C 8.773438 -12 10.28125 -11.460938 11.4375 -10.390625 C 12.59375 -9.328125 13.171875 -7.800781 13.171875 -5.8125 C 13.171875 -5.539062 13.164062 -5.359375 13.15625 -5.265625 Z M 4.8125 -7.5 L 9.25 -7.5 C 9.15625 -8.101562 8.914062 -8.566406 8.53125 -8.890625 C 8.144531 -9.210938 7.648438 -9.375 7.046875 -9.375 C 6.378906 -9.375 5.847656 -9.203125 5.453125 -8.859375 C 5.054688 -8.515625 4.84375 -8.0625 4.8125 -7.5 Z M 4.8125 -7.5 "/></g></g></g><g fill="#000000" fill-opacity="1"><g transform="translate(196.153248, 201.9482)"><g><path d="M 10.875 -18.75 L 18.453125 0 L 13.859375 0 L 12.46875 -3.75 L 5.34375 -3.75 L 3.953125 0 L -0.640625 0 L 6.921875 -18.75 Z M 11.015625 -7.5 L 8.921875 -12.953125 L 8.890625 -12.953125 L 6.796875 -7.5 Z M 11.015625 -7.5 "/></g></g></g><g fill="#000000" fill-opacity="1"><g transform="translate(211.830894, 201.9482)"><g><path d="M 0.84375 2.859375 L 4.140625 1.25 C 4.742188 2.25 5.796875 2.75 7.296875 2.75 C 7.992188 2.75 8.640625 2.523438 9.234375 2.078125 C 9.828125 1.628906 10.125 0.941406 10.125 0.015625 L 10.125 -0.84375 C 9.414062 -0.0507812 8.144531 0.34375 6.3125 0.34375 C 4.632812 0.34375 3.25 -0.25 2.15625 -1.4375 C 1.0625 -2.625 0.515625 -4.082031 0.515625 -5.8125 C 0.515625 -7.539062 1.0625 -9.003906 2.15625 -10.203125 C 3.25 -11.398438 4.632812 -12 6.3125 -12 C 7.8125 -12 9.0625 -11.535156 10.0625 -10.609375 L 10.125 -10.609375 L 10.125 -11.65625 L 14.15625 -11.65625 L 14.15625 0.3125 C 14.15625 2.207031 13.523438 3.671875 12.265625 4.703125 C 11.003906 5.734375 9.347656 6.25 7.296875 6.25 C 3.960938 6.25 1.8125 5.117188 0.84375 2.859375 Z M 5.578125 -7.78125 C 5.054688 -7.269531 4.796875 -6.613281 4.796875 -5.8125 C 4.796875 -5.007812 5.046875 -4.351562 5.546875 -3.84375 C 6.046875 -3.34375 6.703125 -3.09375 7.515625 -3.09375 C 8.304688 -3.09375 8.953125 -3.347656 9.453125 -3.859375 C 9.960938 -4.378906 10.21875 -5.03125 10.21875 -5.8125 C 10.21875 -6.613281 9.957031 -7.269531 9.4375 -7.78125 C 8.914062 -8.300781 8.273438 -8.5625 7.515625 -8.5625 C 6.742188 -8.5625 6.097656 -8.300781 5.578125 -7.78125 Z M 5.578125 -7.78125 "/></g></g></g><g fill="#000000" fill-opacity="1"><g transform="translate(225.213692, 201.9482)"><g><path d="M 13.15625 -5.265625 L 4.703125 -5.265625 C 4.703125 -4.453125 4.96875 -3.847656 5.5 -3.453125 C 6.03125 -3.054688 6.601562 -2.859375 7.21875 -2.859375 C 7.875 -2.859375 8.390625 -2.945312 8.765625 -3.125 C 9.148438 -3.300781 9.582031 -3.644531 10.0625 -4.15625 L 12.96875 -2.703125 C 11.757812 -0.671875 9.742188 0.34375 6.921875 0.34375 C 5.171875 0.34375 3.664062 -0.253906 2.40625 -1.453125 C 1.144531 -2.660156 0.515625 -4.113281 0.515625 -5.8125 C 0.515625 -7.507812 1.144531 -8.960938 2.40625 -10.171875 C 3.664062 -11.390625 5.171875 -12 6.921875 -12 C 8.773438 -12 10.28125 -11.460938 11.4375 -10.390625 C 12.59375 -9.328125 13.171875 -7.800781 13.171875 -5.8125 C 13.171875 -5.539062 13.164062 -5.359375 13.15625 -5.265625 Z M 4.8125 -7.5 L 9.25 -7.5 C 9.15625 -8.101562 8.914062 -8.566406 8.53125 -8.890625 C 8.144531 -9.210938 7.648438 -9.375 7.046875 -9.375 C 6.378906 -9.375 5.847656 -9.203125 5.453125 -8.859375 C 5.054688 -8.515625 4.84375 -8.0625 4.8125 -7.5 Z M 4.8125 -7.5 "/></g></g></g><g fill="#000000" fill-opacity="1"><g transform="translate(236.778799, 201.9482)"><g><path d="M 1.359375 0 L 1.359375 -11.65625 L 5.390625 -11.65625 L 5.390625 -10.421875 L 5.4375 -10.421875 C 6.476562 -11.472656 7.585938 -12 8.765625 -12 C 9.335938 -12 9.910156 -11.921875 10.484375 -11.765625 C 11.054688 -11.617188 11.601562 -11.382812 12.125 -11.0625 C 12.644531 -10.75 13.066406 -10.300781 13.390625 -9.71875 C 13.710938 -9.132812 13.875 -8.453125 13.875 -7.671875 L 13.875 0 L 9.859375 0 L 9.859375 -6.59375 C 9.859375 -7.195312 9.664062 -7.722656 9.28125 -8.171875 C 8.894531 -8.628906 8.390625 -8.859375 7.765625 -8.859375 C 7.160156 -8.859375 6.613281 -8.625 6.125 -8.15625 C 5.632812 -7.6875 5.390625 -7.164062 5.390625 -6.59375 L 5.390625 0 Z M 1.359375 0 "/></g></g></g><g fill="#000000" fill-opacity="1"><g transform="translate(249.661731, 201.9482)"><g><path d="M 7.5625 -8.703125 C 6.800781 -8.703125 6.148438 -8.421875 5.609375 -7.859375 C 5.066406 -7.296875 4.796875 -6.625 4.796875 -5.84375 C 4.796875 -5.039062 5.066406 -4.359375 5.609375 -3.796875 C 6.148438 -3.234375 6.800781 -2.953125 7.5625 -2.953125 C 7.925781 -2.953125 8.269531 -2.992188 8.59375 -3.078125 C 8.925781 -3.171875 9.164062 -3.265625 9.3125 -3.359375 L 9.515625 -3.5 L 10.875 -0.703125 C 10.769531 -0.628906 10.625 -0.535156 10.4375 -0.421875 C 10.25 -0.304688 9.816406 -0.148438 9.140625 0.046875 C 8.472656 0.242188 7.75 0.34375 6.96875 0.34375 C 5.257812 0.34375 3.753906 -0.253906 2.453125 -1.453125 C 1.160156 -2.660156 0.515625 -4.109375 0.515625 -5.796875 C 0.515625 -7.492188 1.160156 -8.953125 2.453125 -10.171875 C 3.753906 -11.390625 5.257812 -12 6.96875 -12 C 7.75 -12 8.460938 -11.90625 9.109375 -11.71875 C 9.765625 -11.539062 10.226562 -11.359375 10.5 -11.171875 L 10.875 -10.90625 L 9.515625 -8.15625 C 9.015625 -8.519531 8.363281 -8.703125 7.5625 -8.703125 Z M 7.5625 -8.703125 "/></g></g></g><g fill="#000000" fill-opacity="1"><g transform="translate(258.682063, 201.9482)"><g><path d="M 10.203125 -11.65625 L 14.828125 -11.65625 L 5.671875 5.90625 L 1.046875 5.90625 L 5.0625 -1.8125 L -0.453125 -11.65625 L 4.1875 -11.65625 L 7.421875 -5.671875 Z M 10.203125 -11.65625 "/></g></g></g></svg>